<?xml version="1.0" encoding="utf-8"?>
<!-- Generator: Adobe Illustrator 16.0.0, SVG Export Plug-In . SVG Version: 6.00 Build 0)  -->
<!DOCTYPE svg PUBLIC "-//W3C//DTD SVG 1.1//EN" "http://www.w3.org/Graphics/SVG/1.1/DTD/svg11.dtd">
<svg version="1.1" id="nodejs_icon" xmlns="http://www.w3.org/2000/svg" xmlns:xlink="http://www.w3.org/1999/xlink" x="0px"
	 y="0px" width="612px" height="792px" viewBox="0 0 612 792" enable-background="new 0 0 612 792" xml:space="preserve">
<title>Node.js icon</title>
<path d="M305.948,702c-8.186,0-16.345-2.142-23.511-6.298l-74.868-44.294c-11.169-6.247-5.712-8.466-2.04-9.767
	c14.918-5.176,17.927-6.375,33.864-15.401c1.657-0.943,3.851-0.587,5.56,0.434l57.527,34.145c2.091,1.147,5.023,1.147,6.937,0
	L533.69,531.38c2.091-1.198,3.417-3.596,3.417-6.069V266.485c0-2.524-1.352-4.896-3.494-6.171l-224.17-129.336
	c-2.065-1.198-4.819-1.198-6.911,0L78.412,260.34c-2.167,1.25-3.544,3.698-3.544,6.146V525.31c0,2.474,1.377,4.82,3.544,5.993
	l61.43,35.496c33.328,16.677,53.754-2.958,53.754-22.695V288.568c0-3.62,2.907-6.451,6.528-6.451h28.433
	c3.544,0,6.502,2.856,6.502,6.451v255.536c0,44.497-24.225,69.997-66.401,69.997c-12.954,0-23.18,0-51.663-14.05L58.14,566.213
	c-14.535-8.39-23.511-24.098-23.511-40.902V266.485c0-16.804,9.001-32.512,23.511-40.876L282.412,96.018
	c14.204-8.033,33.048-8.033,47.124,0l224.247,129.591c14.535,8.39,23.562,24.072,23.562,40.876V525.31
	c0,16.805-9.026,32.462-23.562,40.902L329.536,695.702C322.397,699.858,314.262,702,305.948,702z M487.025,446.822
	c0-48.45-32.742-61.354-101.669-70.457c-69.641-9.205-76.729-13.974-76.729-30.269c0-13.464,5.992-31.441,57.579-31.441
	c46.078,0,63.062,9.92,70.049,40.979c0.611,2.933,3.289,5.074,6.298,5.074h29.096c1.811,0,3.52-0.79,4.743-2.065
	c1.224-1.377,1.887-3.137,1.708-4.998c-4.513-53.499-40.06-78.438-111.894-78.438c-63.954,0-102.102,26.979-102.102,72.241
	c0,49.088,37.943,62.653,99.322,68.723c73.439,7.191,79.126,17.927,79.126,32.359c0,25.066-20.119,35.751-67.371,35.751
	c-59.338,0-72.395-14.892-76.78-44.421c-0.51-3.162-3.213-5.482-6.451-5.482h-28.993c-3.596,0-6.478,2.856-6.478,6.451
	c0,37.791,20.554,82.824,118.702,82.824C446.276,523.678,487.025,495.705,487.025,446.822z"/>
</svg>
